<!DOCTYPE svg PUBLIC "-//W3C//DTD SVG 1.1//EN" "http://www.w3.org/Graphics/SVG/1.1/DTD/svg11.dtd">
<!-- Uploaded to: SVG Repo, www.svgrepo.com, Transformed by: SVG Repo Mixer Tools -->
<svg fill="#000000" width="800px" height="800px" viewBox="0 0 24 24" xmlns="http://www.w3.org/2000/svg" data-name="Layer 1">
<g id="SVGRepo_bgCarrier" stroke-width="0"/>
<g id="SVGRepo_tracerCarrier" stroke-linecap="round" stroke-linejoin="round"/>
<g id="SVGRepo_iconCarrier">
<path d="M12,6.5a2,2,0,1,0-2-2A2,2,0,0,0,12,6.5Zm7.5,14h-1v-5a1,1,0,0,0-1-1h-5v-2h5a1,1,0,0,0,0-2h-5v-2a1,1,0,0,0-2,0v7a1,1,0,0,0,1,1h5v5a1,1,0,0,0,1,1h2a1,1,0,0,0,0-2Zm-6.8-1.6a4,4,0,0,1-7.2-2.4,4,4,0,0,1,2.4-3.66A1,1,0,1,0,7.1,11a6,6,0,1,0,7.2,9.1,1,1,0,0,0-1.6-1.2Z"/>
</g>
</svg>